<?xml version="1.0" standalone="no"?>
<!DOCTYPE svg PUBLIC "-//W3C//DTD SVG 20010904//EN"
 "http://www.w3.org/TR/2001/REC-SVG-20010904/DTD/svg10.dtd">
<svg version="1.0" xmlns="http://www.w3.org/2000/svg"
 width="512.000000pt" height="512.000000pt" viewBox="0 0 512.000000 512.000000"
 preserveAspectRatio="xMidYMid meet">
<metadata>
Created by potrace 1.11, written by Peter Selinger 2001-2013
</metadata>
<g transform="translate(0.000000,512.000000) scale(0.100000,-0.100000)"
fill="#000000" stroke="none">
<path d="M2890 4519 c-341 -44 -656 -229 -863 -508 l-56 -74 -118 -2 c-288 -5
-538 -111 -741 -314 -118 -117 -230 -299 -264 -426 -9 -34 -17 -45 -33 -46
-11 0 -27 -2 -35 -4 -8 -1 -32 -5 -53 -9 -68 -11 -201 -59 -272 -99 -205 -115
-351 -300 -421 -532 -22 -76 -27 -110 -28 -220 0 -120 2 -148 19 -228 38 -180
172 -382 335 -504 99 -74 267 -147 370 -159 19 -3 43 -7 52 -10 23 -7 3346 -6
3378 1 14 3 39 7 56 10 136 18 333 100 453 188 228 167 394 435 437 707 10 60
11 272 2 336 -20 139 -91 315 -179 447 -122 181 -350 349 -568 417 l-55 17
-22 82 c-131 479 -520 830 -1024 923 -74 13 -289 18 -370 7z m284 -394 c123
-14 245 -60 369 -139 49 -32 175 -148 207 -191 96 -130 160 -281 175 -415 3
-25 8 -54 10 -65 2 -11 7 -47 11 -80 3 -33 11 -63 17 -67 6 -3 44 -11 86 -17
42 -7 92 -14 111 -17 78 -11 198 -61 274 -113 55 -37 139 -125 181 -191 201
-309 115 -730 -191 -938 -20 -13 -69 -39 -108 -57 -144 -67 -49 -64 -1844 -64
-1717 0 -1686 -1 -1782 44 -76 35 -97 50 -154 108 -183 187 -187 486 -9 676
55 59 146 116 218 136 90 26 162 24 382 -10 35 -5 33 -9 48 98 23 169 33 216
62 287 50 123 111 204 211 283 91 71 183 118 260 132 15 3 38 7 52 11 29 6
197 7 208 0 4 -2 25 -7 47 -10 22 -4 68 -12 103 -20 61 -12 63 -12 74 8 121
234 163 294 269 391 139 127 304 202 484 222 28 3 51 6 53 8 3 3 115 -3 176
-10z"/>
</g>
</svg>
